<?xml version="1.0" encoding="utf-8"?>
<!-- Generator: Adobe Illustrator 24.3.0, SVG Export Plug-In . SVG Version: 6.00 Build 0)  -->
<svg version="1.1" id="Layer_1" xmlns="http://www.w3.org/2000/svg" xmlns:xlink="http://www.w3.org/1999/xlink" x="0px" y="0px"
	 viewBox="0 0 180 180" style="enable-background:new 0 0 180 180;" xml:space="preserve">
<style type="text/css">
	.st0{fill:#F2F2F2;}
	.st1{fill:#333333;}
	.st2{fill-rule:evenodd;clip-rule:evenodd;fill:#C9D1D6;}
	.st3{fill-rule:evenodd;clip-rule:evenodd;fill:#FF916E;}
	.st4{fill-rule:evenodd;clip-rule:evenodd;fill:#333333;}
	.st5{fill-rule:evenodd;clip-rule:evenodd;fill:#FFFFFF;}
	.st6{fill:#ADEBF6;}
	.st7{fill:#FFDB76;}
	.st8{fill:#FF916E;}
	.st9{fill-rule:evenodd;clip-rule:evenodd;fill:#323136;}
	.st10{fill-rule:evenodd;clip-rule:evenodd;fill:#515056;}
	.st11{fill:#FFFFFF;}
</style>
<g>
	<g id="XMLID_917_">
		<g>
			<path class="st0" d="M154.6,90c0,35.7-28.9,64.6-64.6,64.6c-35.7,0-64.6-28.9-64.6-64.6c0-35.7,28.9-64.6,64.6-64.6
				C125.7,25.4,154.6,54.3,154.6,90z"/>
		</g>
	</g>
	<g>
		<g>
			<g>
				<path class="st1" d="M104.1,45.9h-3c-0.2,0-0.4-0.2-0.4-0.4c0-0.2,0.2-0.4,0.4-0.4h3c0.2,0,0.4,0.2,0.4,0.4
					C104.5,45.7,104.3,45.9,104.1,45.9z"/>
			</g>
		</g>
		<g>
			<g>
				<g>
					<path class="st1" d="M96.1,145.8h-9.8c-0.2,0-0.4-0.2-0.4-0.4c0-0.2,0.2-0.4,0.4-0.4h9.8c0.2,0,0.4,0.2,0.4,0.4
						C96.5,145.6,96.3,145.8,96.1,145.8z"/>
				</g>
			</g>
			<g>
				<g>
					<path class="st1" d="M95.5,142.7H94c-0.2,0-0.4-0.2-0.4-0.4c0-0.2,0.2-0.4,0.4-0.4h1.6c0.2,0,0.4,0.2,0.4,0.4
						C95.9,142.5,95.7,142.7,95.5,142.7z"/>
				</g>
			</g>
			<g>
				<g>
					<path class="st1" d="M104.4,142.7h-6c-0.2,0-0.4-0.2-0.4-0.4c0-0.2,0.2-0.4,0.4-0.4h6c0.2,0,0.4,0.2,0.4,0.4
						C104.8,142.5,104.6,142.7,104.4,142.7z"/>
				</g>
			</g>
			<g>
				<g>
					<path class="st1" d="M98.3,138h-7.2c-0.2,0-0.4-0.2-0.4-0.4c0-0.2,0.2-0.4,0.4-0.4h7.2c0.2,0,0.4,0.2,0.4,0.4
						C98.7,137.8,98.5,138,98.3,138z"/>
				</g>
			</g>
		</g>
		<g>
			<g>
				<g>
					<path class="st1" d="M43.9,87.3h-9.8c-0.2,0-0.4-0.2-0.4-0.4c0-0.2,0.2-0.4,0.4-0.4h9.8c0.2,0,0.4,0.2,0.4,0.4
						C44.2,87.1,44.1,87.3,43.9,87.3z"/>
				</g>
			</g>
			<g>
				<g>
					<path class="st1" d="M43.3,84.3h-1.6c-0.2,0-0.4-0.2-0.4-0.4c0-0.2,0.2-0.4,0.4-0.4h1.6c0.2,0,0.4,0.2,0.4,0.4
						C43.7,84.1,43.5,84.3,43.3,84.3z"/>
				</g>
			</g>
			<g>
				<g>
					<path class="st1" d="M52.2,84.3h-6c-0.2,0-0.4-0.2-0.4-0.4c0-0.2,0.2-0.4,0.4-0.4h6c0.2,0,0.4,0.2,0.4,0.4
						C52.6,84.1,52.4,84.3,52.2,84.3z"/>
				</g>
			</g>
			<g>
				<g>
					<path class="st1" d="M46.1,79.5h-7.2c-0.2,0-0.4-0.2-0.4-0.4c0-0.2,0.2-0.4,0.4-0.4h7.2c0.2,0,0.4,0.2,0.4,0.4
						C46.5,79.4,46.3,79.5,46.1,79.5z"/>
				</g>
			</g>
		</g>
		<g>
			<g>
				<g>
					<path class="st1" d="M81.6,42.6H68c-0.2,0-0.4-0.2-0.4-0.4c0-0.2,0.2-0.4,0.4-0.4h13.6c0.2,0,0.4,0.2,0.4,0.4
						C82,42.4,81.9,42.6,81.6,42.6z"/>
				</g>
			</g>
			<g>
				<g>
					<path class="st1" d="M71,45.7h-2.2c-0.2,0-0.4-0.2-0.4-0.4c0-0.2,0.2-0.4,0.4-0.4H71c0.2,0,0.4,0.2,0.4,0.4
						C71.4,45.5,71.2,45.7,71,45.7z"/>
				</g>
			</g>
			<g>
				<g>
					<path class="st1" d="M64.7,45.7h-8.3c-0.2,0-0.4-0.2-0.4-0.4c0-0.2,0.2-0.4,0.4-0.4h8.3c0.2,0,0.4,0.2,0.4,0.4
						C65.1,45.5,65,45.7,64.7,45.7z"/>
				</g>
			</g>
			<g>
				<g>
					<path class="st1" d="M74.9,50.4h-10c-0.2,0-0.4-0.2-0.4-0.4c0-0.2,0.2-0.4,0.4-0.4h10c0.2,0,0.4,0.2,0.4,0.4
						C75.3,50.2,75.1,50.4,74.9,50.4z"/>
				</g>
			</g>
		</g>
		<g>
			<g>
				<path class="st1" d="M101.3,36.3h-6c-0.2,0-0.4-0.2-0.4-0.4c0-0.2,0.2-0.4,0.4-0.4h6c0.2,0,0.4,0.2,0.4,0.4
					C101.7,36.1,101.5,36.3,101.3,36.3z"/>
			</g>
		</g>
		<g>
			<g>
				<g>
					<path class="st1" d="M105.2,38.7H102c-0.2,0-0.4-0.2-0.4-0.4c0-0.2,0.2-0.4,0.4-0.4h3.2c0.2,0,0.4,0.2,0.4,0.4
						C105.6,38.5,105.4,38.7,105.2,38.7z"/>
				</g>
			</g>
			<g>
				<g>
					<path class="st1" d="M103.6,40.3c-0.2,0-0.4-0.2-0.4-0.4v-3.2c0-0.2,0.2-0.4,0.4-0.4c0.2,0,0.4,0.2,0.4,0.4v3.2
						C104,40.1,103.8,40.3,103.6,40.3z"/>
				</g>
			</g>
		</g>
		<g id="XMLID_1625_">
			<g id="XMLID_1639_">
				<g>
					<rect x="40.6" y="93.6" class="st2" width="28.3" height="19.8"/>
				</g>
			</g>
			<g id="XMLID_1628_">
				<g id="XMLID_1634_">
					<g id="XMLID_1636_">
						<g>
							<path class="st3" d="M52.7,100.6c0,2.2-1.8,4-4,4c-2.2,0-4-1.8-4-4c0-2.2,1.8-4,4-4C50.9,96.5,52.7,98.3,52.7,100.6z"/>
						</g>
					</g>
					<g id="XMLID_1635_">
						<g>
							<path class="st4" d="M51.3,100.6c0,1.4-1.2,2.6-2.6,2.6c-1.4,0-2.6-1.2-2.6-2.6c0-1.4,1.2-2.6,2.6-2.6
								C50.1,98,51.3,99.1,51.3,100.6z"/>
						</g>
					</g>
				</g>
				<g id="XMLID_1629_">
					<g id="XMLID_1631_">
						<g>
							<path class="st3" d="M64.2,100.6c0,2.2-1.8,4-4,4s-4-1.8-4-4c0-2.2,1.8-4,4-4S64.2,98.3,64.2,100.6z"/>
						</g>
					</g>
					<g id="XMLID_1630_">
						<g>
							<path class="st4" d="M62.7,100.6c0,1.4-1.2,2.6-2.6,2.6s-2.6-1.2-2.6-2.6c0-1.4,1.2-2.6,2.6-2.6S62.7,99.1,62.7,100.6z"/>
						</g>
					</g>
				</g>
			</g>
			<g id="XMLID_1627_">
				<g>
					<rect x="42.3" y="109.3" class="st5" width="24.8" height="2.5"/>
				</g>
			</g>
			<g id="XMLID_1626_">
				<g>
					<rect x="42.3" y="108" class="st4" width="24.8" height="0.7"/>
				</g>
			</g>
		</g>
		<g id="XMLID_1563_">
			<g id="XMLID_1600_">
				<g>
					<path class="st2" d="M128.1,52.3h-0.8h-20.9v81.4h20.9h0.8H149V52.3H128.1z M110.4,130.9c0,0.4-0.2,0.8-0.4,1.1
						c-0.3,0.3-0.7,0.4-1.1,0.4c-0.8,0-1.5-0.7-1.5-1.5v-2.6c0-0.4,0.2-0.8,0.4-1.1c0.3-0.3,0.7-0.4,1.1-0.4c0.8,0,1.5,0.7,1.5,1.5
						V130.9z M110.4,123.6c0,0.4-0.2,0.8-0.4,1.1c-0.3,0.3-0.7,0.4-1.1,0.4c-0.8,0-1.5-0.7-1.5-1.5V121c0-0.4,0.2-0.8,0.4-1.1
						c0.3-0.3,0.7-0.4,1.1-0.4c0.8,0,1.5,0.7,1.5,1.5V123.6z M110.4,116.2c0,0.4-0.2,0.8-0.4,1.1c-0.3,0.3-0.7,0.4-1.1,0.4
						c-0.8,0-1.5-0.7-1.5-1.5v-2.6c0-0.4,0.2-0.8,0.4-1.1c0.3-0.3,0.7-0.4,1.1-0.4c0.8,0,1.5,0.7,1.5,1.5V116.2z M110.4,108.9
						c0,0.4-0.2,0.8-0.4,1.1c-0.3,0.3-0.7,0.4-1.1,0.4c-0.8,0-1.5-0.7-1.5-1.5v-2.6c0-0.4,0.2-0.8,0.4-1.1c0.3-0.3,0.7-0.4,1.1-0.4
						c0.8,0,1.5,0.7,1.5,1.5V108.9z M110.4,101.6c0,0.4-0.2,0.8-0.4,1.1c-0.3,0.3-0.7,0.4-1.1,0.4c-0.8,0-1.5-0.7-1.5-1.5V99
						c0-0.4,0.2-0.8,0.4-1.1c0.3-0.3,0.7-0.4,1.1-0.4c0.8,0,1.5,0.7,1.5,1.5V101.6z M110.4,94.2c0,0.4-0.2,0.8-0.4,1.1
						c-0.3,0.3-0.7,0.4-1.1,0.4c-0.8,0-1.5-0.7-1.5-1.5v-2.6c0-0.4,0.2-0.8,0.4-1.1c0.3-0.3,0.7-0.4,1.1-0.4c0.8,0,1.5,0.7,1.5,1.5
						V94.2z M110.4,86.9c0,0.4-0.2,0.8-0.4,1.1c-0.3,0.3-0.7,0.4-1.1,0.4c-0.8,0-1.5-0.7-1.5-1.5v-2.6c0-0.4,0.2-0.8,0.4-1.1
						c0.3-0.3,0.7-0.4,1.1-0.4c0.8,0,1.5,0.7,1.5,1.5V86.9z M110.4,79.5c0,0.4-0.2,0.8-0.4,1.1c-0.3,0.3-0.7,0.4-1.1,0.4
						c-0.8,0-1.5-0.7-1.5-1.5V77c0-0.4,0.2-0.8,0.4-1.1c0.3-0.3,0.7-0.4,1.1-0.4c0.8,0,1.5,0.7,1.5,1.5V79.5z M110.4,72.2
						c0,0.4-0.2,0.8-0.4,1.1c-0.3,0.3-0.7,0.4-1.1,0.4c-0.8,0-1.5-0.7-1.5-1.5v-2.6c0-0.4,0.2-0.8,0.4-1.1c0.3-0.3,0.7-0.4,1.1-0.4
						c0.8,0,1.5,0.7,1.5,1.5V72.2z M110.4,64.9c0,0.4-0.2,0.8-0.4,1.1c-0.3,0.3-0.7,0.4-1.1,0.4c-0.8,0-1.5-0.7-1.5-1.5v-2.6
						c0-0.4,0.2-0.8,0.4-1.1c0.3-0.3,0.7-0.4,1.1-0.4c0.8,0,1.5,0.7,1.5,1.5V64.9z M110.4,57.5c0,0.4-0.2,0.8-0.4,1.1
						c-0.3,0.3-0.7,0.4-1.1,0.4c-0.8,0-1.5-0.7-1.5-1.5v-2.6c0-0.4,0.2-0.8,0.4-1.1c0.3-0.3,0.7-0.4,1.1-0.4c0.8,0,1.5,0.7,1.5,1.5
						V57.5z M148.1,130.9c0,0.8-0.7,1.5-1.5,1.5c-0.4,0-0.8-0.2-1.1-0.4c-0.3-0.3-0.4-0.7-0.4-1.1v-2.6c0-0.8,0.7-1.5,1.5-1.5
						c0.4,0,0.8,0.2,1.1,0.4c0.3,0.3,0.4,0.7,0.4,1.1V130.9z M148.1,123.6c0,0.8-0.7,1.5-1.5,1.5c-0.4,0-0.8-0.2-1.1-0.4
						c-0.3-0.3-0.4-0.7-0.4-1.1V121c0-0.8,0.7-1.5,1.5-1.5c0.4,0,0.8,0.2,1.1,0.4c0.3,0.3,0.4,0.7,0.4,1.1V123.6z M148.1,116.2
						c0,0.8-0.7,1.5-1.5,1.5c-0.4,0-0.8-0.2-1.1-0.4s-0.4-0.7-0.4-1.1v-2.6c0-0.8,0.7-1.5,1.5-1.5c0.4,0,0.8,0.2,1.1,0.4
						c0.3,0.3,0.4,0.7,0.4,1.1V116.2z M148.1,108.9c0,0.8-0.7,1.5-1.5,1.5c-0.4,0-0.8-0.2-1.1-0.4s-0.4-0.7-0.4-1.1v-2.6
						c0-0.8,0.7-1.5,1.5-1.5c0.4,0,0.8,0.2,1.1,0.4c0.3,0.3,0.4,0.7,0.4,1.1V108.9z M148.1,101.6c0,0.8-0.7,1.5-1.5,1.5
						c-0.4,0-0.8-0.2-1.1-0.4c-0.3-0.3-0.4-0.7-0.4-1.1V99c0-0.8,0.7-1.5,1.5-1.5c0.4,0,0.8,0.2,1.1,0.4c0.3,0.3,0.4,0.7,0.4,1.1
						V101.6z M148.1,94.2c0,0.8-0.7,1.5-1.5,1.5c-0.4,0-0.8-0.2-1.1-0.4c-0.3-0.3-0.4-0.7-0.4-1.1v-2.6c0-0.8,0.7-1.5,1.5-1.5
						c0.4,0,0.8,0.2,1.1,0.4c0.3,0.3,0.4,0.7,0.4,1.1V94.2z M148.1,86.9c0,0.8-0.7,1.5-1.5,1.5c-0.4,0-0.8-0.2-1.1-0.4
						c-0.3-0.3-0.4-0.7-0.4-1.1v-2.6c0-0.8,0.7-1.5,1.5-1.5c0.4,0,0.8,0.2,1.1,0.4c0.3,0.3,0.4,0.7,0.4,1.1V86.9z M148.1,79.5
						c0,0.8-0.7,1.5-1.5,1.5c-0.4,0-0.8-0.2-1.1-0.4c-0.3-0.3-0.4-0.7-0.4-1.1V77c0-0.8,0.7-1.5,1.5-1.5c0.4,0,0.8,0.2,1.1,0.4
						c0.3,0.3,0.4,0.7,0.4,1.1V79.5z M148.1,72.2c0,0.8-0.7,1.5-1.5,1.5c-0.4,0-0.8-0.2-1.1-0.4c-0.3-0.3-0.4-0.7-0.4-1.1v-2.6
						c0-0.8,0.7-1.5,1.5-1.5c0.4,0,0.8,0.2,1.1,0.4c0.3,0.3,0.4,0.7,0.4,1.1V72.2z M148.1,64.9c0,0.8-0.7,1.5-1.5,1.5
						c-0.4,0-0.8-0.2-1.1-0.4s-0.4-0.7-0.4-1.1v-2.6c0-0.8,0.7-1.5,1.5-1.5c0.4,0,0.8,0.2,1.1,0.4c0.3,0.3,0.4,0.7,0.4,1.1V64.9z
						 M148.1,57.5c0,0.8-0.7,1.5-1.5,1.5c-0.4,0-0.8-0.2-1.1-0.4c-0.3-0.3-0.4-0.7-0.4-1.1v-2.6c0-0.8,0.7-1.5,1.5-1.5
						c0.4,0,0.8,0.2,1.1,0.4c0.3,0.3,0.4,0.7,0.4,1.1V57.5z"/>
				</g>
			</g>
			<g id="XMLID_1577_">
				<g id="XMLID_1578_">
					<g>
						<rect x="143" y="53.4" class="st4" width="1.2" height="79"/>
					</g>
				</g>
			</g>
			<g id="XMLID_1575_">
				<g id="XMLID_1576_">
					<g>
						<rect x="111.8" y="54.9" class="st4" width="31.4" height="1.3"/>
					</g>
				</g>
			</g>
			<g id="XMLID_1573_">
				<g id="XMLID_1574_">
					<g>
						<rect x="111.8" y="79.8" class="st4" width="31.4" height="1.3"/>
					</g>
				</g>
			</g>
			<g id="XMLID_1571_">
				<g id="XMLID_1572_">
					<g>
						<rect x="111.8" y="104.6" class="st4" width="31.4" height="1.3"/>
					</g>
				</g>
			</g>
			<g id="XMLID_1569_">
				<g id="XMLID_1570_">
					<g>
						<rect x="111.8" y="129.5" class="st4" width="31.4" height="1.3"/>
					</g>
				</g>
			</g>
			<g id="XMLID_1567_">
				<g id="XMLID_1568_">
					<g>
						<rect x="111.2" y="53.4" class="st4" width="1.2" height="79"/>
					</g>
				</g>
			</g>
			<g id="XMLID_1566_">
				<g>
					<rect x="113.7" y="57.8" class="st3" width="27.9" height="20.3"/>
				</g>
			</g>
			<g id="XMLID_1565_">
				<g>
					<rect x="113.7" y="82.8" class="st3" width="27.9" height="20.3"/>
				</g>
			</g>
			<g id="XMLID_1564_">
				<g>
					<rect x="113.7" y="107.7" class="st3" width="27.9" height="20.3"/>
				</g>
			</g>
		</g>
		<g>
			<g>
				<g>
					<path class="st1" d="M55.5,81.2c0-1.3,1-2.3,2.3-2.3h65.4c1.3,0,2.3,1,2.3,2.3v44.7c0,1.3-1,2.3-2.3,2.3H57.8
						c-1.3,0-2.3-1-2.3-2.3V81.2z"/>
				</g>
			</g>
			<g>
				<g>
					<rect x="63.6" y="118.6" class="st6" width="52.3" height="0.7"/>
				</g>
			</g>
			<g>
				<g>
					<rect x="101.7" y="119.3" class="st6" width="0.7" height="5.8"/>
				</g>
			</g>
			<g>
				<g>
					<rect x="77" y="119.3" class="st6" width="0.7" height="5.8"/>
				</g>
			</g>
			<g>
				<g>
					<g>
						<polygon class="st6" points="116.6,50.5 126.6,58.3 126.6,58.4 117.7,60 107.7,52.1 						"/>
					</g>
				</g>
				<g>
					<g>
						<polygon class="st6" points="79.6,57 89.7,64.9 80.7,66.5 70.7,58.6 						"/>
					</g>
				</g>
				<g>
					<g>
						<polygon class="st6" points="61.1,60.3 71.2,68.2 62.2,69.8 52.1,61.9 						"/>
					</g>
				</g>
				<g>
					<g>
						<polygon class="st6" points="98.1,53.8 108.2,61.7 99.2,63.2 89.2,55.4 						"/>
					</g>
				</g>
				<g>
					<g>
						<polygon class="st1" points="125,49.1 126.6,58.3 116.6,50.5 						"/>
					</g>
				</g>
				<g>
					<g>
						<polygon class="st1" points="107.7,52.1 117.7,60 108.2,61.7 98.1,53.8 						"/>
					</g>
				</g>
				<g>
					<g>
						<polygon class="st1" points="89.2,55.4 99.2,63.2 89.7,64.9 79.6,57 						"/>
					</g>
				</g>
				<g>
					<g>
						<polygon class="st1" points="70.7,58.6 80.7,66.5 71.2,68.2 61.1,60.3 						"/>
					</g>
				</g>
			</g>
			<g>
				<g>
					<polygon class="st1" points="52.1,61.9 52.1,61.9 62.2,69.8 53.7,71.2 					"/>
				</g>
			</g>
			<g>
				<g>
					<g>
						<polygon class="st6" points="62.1,71.3 53.6,80.7 53.6,80.7 62.7,80.7 71.2,71.3 						"/>
					</g>
				</g>
				<g>
					<g>
						<polygon class="st6" points="99.7,71.3 91.2,80.7 100.3,80.7 108.8,71.3 						"/>
					</g>
				</g>
				<g>
					<g>
						<polygon class="st6" points="118.5,71.3 110,80.7 119.1,80.7 127.6,71.3 						"/>
					</g>
				</g>
				<g>
					<g>
						<polygon class="st6" points="80.9,71.3 72.4,80.7 81.5,80.7 90,71.3 						"/>
					</g>
				</g>
				<g>
					<g>
						<polygon class="st1" points="71.2,71.3 62.7,80.7 72.4,80.7 80.9,71.3 						"/>
					</g>
				</g>
				<g>
					<g>
						<polygon class="st1" points="90,71.3 81.5,80.7 91.2,80.7 99.7,71.3 						"/>
					</g>
				</g>
				<g>
					<g>
						<polygon class="st1" points="108.8,71.3 100.3,80.7 110,80.7 118.5,71.3 						"/>
					</g>
				</g>
				<g>
					<g>
						<polygon class="st1" points="127.7,71.3 127.6,71.3 119.1,80.7 127.7,80.7 						"/>
					</g>
				</g>
			</g>
			<g>
				<g>
					<g>
						<path class="st1" d="M54.4,60.4c-1.3,0.1-2.5,1.4-2.5,2.9V79c0,1.5,1.1,2.7,2.5,2.7h14.3c1.4,0,2.5-1.2,2.5-2.7L61,62.3
							c-0.7-1.2-2.4-2.2-3.8-2.1L54.4,60.4z"/>
					</g>
				</g>
			</g>
			<g>
				<g>
					<rect x="63.6" y="82.8" class="st6" width="51.4" height="0.5"/>
				</g>
			</g>
			<g>
				<g>
					<rect x="63.6" y="91.9" class="st6" width="24.5" height="0.5"/>
				</g>
			</g>
			<g>
				<g>
					<rect x="63.6" y="102.2" class="st6" width="24.5" height="0.5"/>
				</g>
			</g>
			<g>
				<g>
					<rect x="63.6" y="85.1" class="st6" width="7.1" height="5"/>
				</g>
			</g>
			<g>
				<g>
					<rect x="72.8" y="85.1" class="st6" width="7.1" height="5"/>
				</g>
			</g>
			<g>
				<g>
					<rect x="82.1" y="85.1" class="st6" width="7.1" height="5"/>
				</g>
			</g>
			<g>
				<g>
					<rect x="63.6" y="94.2" class="st6" width="7.1" height="5"/>
				</g>
			</g>
			<g>
				<g>
					<rect x="72.8" y="94.2" class="st6" width="7.1" height="5"/>
				</g>
			</g>
			<g>
				<g>
					<rect x="82.1" y="94.2" class="st6" width="7.1" height="5"/>
				</g>
			</g>
			<g>
				<g>
					<g>
						<g>
							<rect x="69.8" y="115.1" class="st7" width="2.6" height="3.5"/>
						</g>
					</g>
				</g>
				<g>
					<g>
						<g>
							<rect x="75.1" y="111.9" class="st8" width="2.6" height="6.7"/>
						</g>
					</g>
				</g>
				<g>
					<g>
						<rect x="80.4" y="109.5" class="st6" width="2.6" height="9.1"/>
					</g>
				</g>
				<g>
					<g>
						<rect x="85.7" y="111.7" class="st6" width="2.6" height="6.9"/>
					</g>
				</g>
				<g>
					<g>
						<g>
							<rect x="91" y="103.8" class="st8" width="2.6" height="14.8"/>
						</g>
					</g>
				</g>
				<g>
					<g>
						<g>
							<rect x="96.2" y="106.4" class="st7" width="2.6" height="12.2"/>
						</g>
					</g>
				</g>
				<g>
					<g>
						<rect x="101.5" y="101" class="st6" width="2.6" height="17.6"/>
					</g>
				</g>
				<g>
					<g>
						<g>
							<rect x="106.8" y="96" class="st8" width="2.6" height="22.6"/>
						</g>
					</g>
				</g>
				<g>
					<g>
						<g>
							<rect x="112.1" y="90.9" class="st7" width="2.6" height="27.7"/>
						</g>
					</g>
				</g>
			</g>
			<g>
				<g>
					<g>
						<g>
							<path class="st6" d="M67,114.8c-0.1,0-0.2,0-0.2-0.1c-0.1-0.1,0-0.3,0.1-0.4l15.1-9.8c0.1-0.1,0.2-0.1,0.3,0l4.5,2.5l5.5-8.7
								c0-0.1,0.1-0.1,0.2-0.1c0.1,0,0.2,0,0.2,0.1l4.7,3.7l15.6-13.5c0.1-0.1,0.3-0.1,0.4,0c0.1,0.1,0.1,0.3,0,0.4l-15.8,13.6
								c-0.1,0.1-0.3,0.1-0.4,0l-4.7-3.6l-5.5,8.7c-0.1,0.1-0.2,0.2-0.4,0.1l-4.6-2.6l-14.9,9.7C67.1,114.8,67.1,114.8,67,114.8
								L67,114.8z"/>
						</g>
					</g>
				</g>
				<g>
					<g>
						<path class="st8" d="M68.5,114.4c0,0.6-0.5,1.1-1.1,1.1c-0.6,0-1.1-0.5-1.1-1.1c0-0.6,0.5-1.1,1.1-1.1
							C68,113.3,68.5,113.8,68.5,114.4z"/>
					</g>
				</g>
				<g>
					<g>
						<path class="st8" d="M83,104.9c0,0.6-0.5,1.1-1.1,1.1c-0.6,0-1.1-0.5-1.1-1.1c0-0.6,0.5-1.1,1.1-1.1
							C82.5,103.8,83,104.3,83,104.9z"/>
					</g>
				</g>
				<g>
					<g>
						<path class="st8" d="M87.9,107.3c0,0.6-0.5,1.1-1.1,1.1c-0.6,0-1.1-0.5-1.1-1.1c0-0.6,0.5-1.1,1.1-1.1
							C87.4,106.2,87.9,106.7,87.9,107.3z"/>
					</g>
				</g>
				<g>
					<g>
						<path class="st8" d="M93.7,98.6c0,0.6-0.5,1.1-1.1,1.1c-0.6,0-1.1-0.5-1.1-1.1c0-0.6,0.5-1.1,1.1-1.1
							C93.2,97.5,93.7,98,93.7,98.6z"/>
					</g>
				</g>
				<g>
					<g>
						<path class="st8" d="M98.8,102.4c0,0.6-0.5,1.1-1.1,1.1c-0.6,0-1.1-0.5-1.1-1.1c0-0.6,0.5-1.1,1.1-1.1
							C98.3,101.3,98.8,101.8,98.8,102.4z"/>
					</g>
				</g>
				<g>
					<g>
						<path class="st8" d="M114.4,88.7c0,0.6-0.5,1.1-1.1,1.1c-0.6,0-1.1-0.5-1.1-1.1c0-0.6,0.5-1.1,1.1-1.1
							C113.9,87.5,114.4,88,114.4,88.7z"/>
					</g>
				</g>
			</g>
		</g>
		<g id="XMLID_447_">
			<g id="XMLID_961_">
				<g>
					<path class="st3" d="M75.1,142.7H38c-1.3,0-2.3-1-2.3-2.3v-20.6c0-1.3,1-2.3,2.3-2.3h37.1c1.3,0,2.3,1,2.3,2.3v20.6
						C77.4,141.7,76.4,142.7,75.1,142.7z"/>
				</g>
			</g>
			<g id="XMLID_477_">
				<g id="XMLID_959_">
					<g>
						<rect x="40" y="133.9" class="st9" width="33" height="1.1"/>
					</g>
				</g>
				<g id="XMLID_5_">
					<g>
						<rect x="40" y="133.9" class="st10" width="17.9" height="1.1"/>
					</g>
				</g>
				<g id="XMLID_956_">
					<g>
						<rect x="45.3" y="133" class="st5" width="1" height="2.9"/>
					</g>
				</g>
				<g id="XMLID_955_">
					<g>
						<path class="st5" d="M50.6,120.1l10.1-0.6c1.4,0,2.6,1.3,2.6,2.9v4.9c0,1.6-1.2,2.9-2.6,2.9l-10.1-0.6c-1.4,0-2.6-1.2-2.6-2.6
							v-4.3C48,121.3,49.2,120.1,50.6,120.1z"/>
					</g>
				</g>
				<g id="XMLID_953_">
					<g>
						<polygon class="st3" points="53.3,122.1 58,124.9 53.3,127.7 						"/>
					</g>
				</g>
				<g id="XMLID_946_">
					<g>
						<path class="st5" d="M68.5,136.7h1.1v0.4H69v0.6h-0.5V136.7L68.5,136.7z M69,138.3v0.6h0.6v0.4h-1.1v-1.1H69L69,138.3z
							 M71.3,136.7h1.1v1.1h-0.5v-0.6h-0.6V136.7L71.3,136.7z M72.4,138.3v1.1h-1.1v-0.4h0.6v-0.6H72.4z"/>
					</g>
				</g>
				<g id="XMLID_940_">
					<g id="XMLID_3_">
						<g>
							<polygon class="st5" points="58,136.8 56.7,137.4 56,137.4 56,138.7 56.7,138.7 58,139.3 							"/>
						</g>
					</g>
					<g id="XMLID_943_">
						<g>
							<path class="st11" d="M58.5,136.7c0.4,0.2,0.6,0.4,0.7,0.8c0.1,0.2,0.1,0.4,0.1,0.6s0,0.4-0.1,0.5c-0.1,0.3-0.4,0.6-0.7,0.7
								l-0.1-0.2c0.3-0.1,0.5-0.3,0.6-0.6c0.1-0.1,0.1-0.3,0.1-0.5c0-0.2,0-0.3-0.1-0.5c-0.1-0.3-0.3-0.5-0.6-0.7L58.5,136.7z"/>
						</g>
					</g>
					<g id="XMLID_2_">
						<g>
							<path class="st11" d="M58.5,137.2c0.1,0.1,0.2,0.2,0.3,0.3l0,0c0.1,0.2,0.2,0.4,0.2,0.6c0,0.2,0,0.4-0.1,0.6
								c-0.1,0.1-0.2,0.2-0.3,0.3l-0.1-0.2c0.1-0.1,0.2-0.1,0.2-0.2c0.1-0.1,0.1-0.3,0.1-0.5c0-0.2-0.1-0.3-0.1-0.5l0,0
								c-0.1-0.1-0.1-0.2-0.2-0.2L58.5,137.2z"/>
						</g>
					</g>
				</g>
				<g id="XMLID_1_">
					<g>
						<path class="st11" d="M45,138.4c0,0.5-0.2,0.8-0.6,0.8c-0.4,0-0.6-0.4-0.6-0.8c0-0.5,0.2-0.8,0.6-0.8
							C44.9,137.6,45,137.9,45,138.4z M44.2,138.4c0,0.4,0.1,0.5,0.2,0.5c0.1,0,0.2-0.2,0.2-0.5c0-0.4-0.1-0.5-0.2-0.5
							C44.3,137.8,44.2,138,44.2,138.4z"/>
					</g>
					<g>
						<path class="st11" d="M45.2,138.2c0-0.1,0.1-0.2,0.2-0.2c0.1,0,0.2,0.1,0.2,0.2c0,0.1-0.1,0.2-0.2,0.2
							C45.3,138.4,45.2,138.3,45.2,138.2z M45.2,139c0-0.1,0.1-0.2,0.2-0.2c0.1,0,0.2,0.1,0.2,0.2c0,0.1-0.1,0.2-0.2,0.2
							C45.3,139.2,45.2,139.1,45.2,139z"/>
					</g>
					<g>
						<path class="st11" d="M47.1,138.4c0,0.5-0.2,0.8-0.6,0.8c-0.4,0-0.6-0.4-0.6-0.8c0-0.5,0.2-0.8,0.6-0.8
							C46.9,137.6,47.1,137.9,47.1,138.4z M46.2,138.4c0,0.4,0.1,0.5,0.2,0.5c0.1,0,0.2-0.2,0.2-0.5c0-0.4-0.1-0.5-0.2-0.5
							C46.3,137.8,46.2,138,46.2,138.4z"/>
					</g>
					<g>
						<path class="st11" d="M48.4,138.4c0,0.5-0.2,0.8-0.6,0.8c-0.4,0-0.6-0.4-0.6-0.8c0-0.5,0.2-0.8,0.6-0.8
							C48.3,137.6,48.4,137.9,48.4,138.4z M47.6,138.4c0,0.4,0.1,0.5,0.2,0.5c0.1,0,0.2-0.2,0.2-0.5c0-0.4-0.1-0.5-0.2-0.5
							C47.7,137.8,47.6,138,47.6,138.4z"/>
					</g>
					<g>
						<path class="st11" d="M48.5,139.3l0.5-1.8h0.2l-0.5,1.8H48.5z"/>
					</g>
					<g>
						<path class="st11" d="M49.5,138.8c0.1,0,0.2,0.1,0.4,0.1c0.2,0,0.3-0.1,0.3-0.2c0-0.2-0.2-0.2-0.3-0.2h-0.2v-0.3h0.1
							c0.1,0,0.3,0,0.3-0.2c0-0.1-0.1-0.2-0.2-0.2c-0.1,0-0.3,0.1-0.3,0.1l-0.1-0.3c0.1-0.1,0.3-0.1,0.5-0.1c0.3,0,0.5,0.2,0.5,0.4
							c0,0.2-0.1,0.3-0.3,0.4v0c0.2,0,0.3,0.2,0.3,0.4c0,0.3-0.2,0.5-0.7,0.5c-0.2,0-0.4-0.1-0.5-0.1L49.5,138.8z"/>
					</g>
					<g>
						<path class="st11" d="M50.8,138.2c0-0.1,0.1-0.2,0.2-0.2c0.1,0,0.2,0.1,0.2,0.2c0,0.1-0.1,0.2-0.2,0.2
							C50.9,138.4,50.8,138.3,50.8,138.2z M50.8,139c0-0.1,0.1-0.2,0.2-0.2c0.1,0,0.2,0.1,0.2,0.2c0,0.1-0.1,0.2-0.2,0.2
							C50.9,139.2,50.8,139.1,50.8,139z"/>
					</g>
					<g>
						<path class="st11" d="M51.9,137.9L51.9,137.9l-0.3,0.1l-0.1-0.3l0.4-0.2h0.3v1.6h-0.4V137.9z"/>
					</g>
					<g>
						<path class="st11" d="M53.5,139.2v-0.4h-0.7v-0.2l0.6-1h0.5v0.9H54v0.3h-0.2v0.4H53.5z M53.5,138.5v-0.4c0-0.1,0-0.2,0-0.3h0
							c-0.1,0.1-0.1,0.2-0.2,0.3l-0.2,0.3l0,0H53.5z"/>
					</g>
				</g>
				<g id="XMLID_901_">
					<g>
						<polygon class="st5" points="40,136.8 42.1,138 40,139.3 						"/>
					</g>
				</g>
			</g>
		</g>
		<g id="XMLID_1525_">
			<g>
				<g>
					<path class="st11" d="M56.6,63c-0.6,0.6-0.6,1.5,0,2.1c-0.6-0.6-1.5-0.6-2.1,0c0.6-0.6,0.6-1.5,0-2.1
						C55.1,63.6,56,63.6,56.6,63z"/>
				</g>
			</g>
			<g>
				<g>
					<path class="st11" d="M61.4,64c-0.8,0.8-0.8,2.1,0,2.8c-0.8-0.8-2.1-0.8-2.8,0c0.8-0.8,0.8-2.1,0-2.8
						C59.3,64.7,60.6,64.7,61.4,64z"/>
				</g>
			</g>
		</g>
	</g>
</g>
</svg>
