<svg xmlns="http://www.w3.org/2000/svg" xmlns:xlink="http://www.w3.org/1999/xlink" viewBox="0 0 246.51 256.67"><defs><style>.cls-1{isolation:isolate;}.cls-2{opacity:0.4;mix-blend-mode:multiply;fill:url(#linear-gradient);}.cls-3{fill:#1f2687;}.cls-4{fill:#9dcc96;stroke:#212683;}.cls-4,.cls-5{stroke-miterlimit:10;stroke-width:6px;}.cls-5{fill:#a8dedb;stroke:#1f2687;}.cls-6{fill:#212683;}</style><linearGradient id="linear-gradient" y1="142.51" x2="223.44" y2="142.51" gradientUnits="userSpaceOnUse"><stop offset="0" stop-color="#efa6c2"/><stop offset="1" stop-color="#96cdbd"/></linearGradient></defs><title>Movie</title><g class="cls-1"><g id="Layer_2" data-name="Layer 2"><g id="Layer_1-2" data-name="Layer 1"><path class="cls-2" d="M184.76,127.15A53.78,53.78,0,1,0,112.15,50.1a68.07,68.07,0,1,0-21.07,116,68.09,68.09,0,1,0,93.69-38.95Z"/><path class="cls-3" d="M87.57,218.45H84.26v-3.31a3,3,0,1,0-6,0v3.31H74.93a3,3,0,0,0,0,6h3.31v3.31a3,3,0,0,0,6,0v-3.31h3.31a3,3,0,1,0,0-6Z"/><path class="cls-3" d="M82,6.32H78.72V3a3,3,0,1,0-6,0V6.32H69.39a3,3,0,0,0,0,6H72.7v3.31a3,3,0,0,0,6,0V12.34H82a3,3,0,1,0,0-6Z"/><path class="cls-3" d="M190.92,7.34h-2.19V5.15a2,2,0,1,0-4,0V7.34h-2.19a2,2,0,0,0,0,4h2.19v2.19a2,2,0,0,0,4,0V11.32h2.19a2,2,0,1,0,0-4Z"/><polyline class="cls-4" points="243.2 95.08 243.2 82.2 243.2 70.8 243.2 47.9 219.71 47.9 195.71 47.9 171.71 47.9 147.71 47.9 123.71 47.9 99.71 47.9 75.71 47.9 51.71 47.9 28.23 47.9 28.23 70.8 28.23 159.99 28.23 182.89 51.71 182.89 75.71 182.89 99.71 182.89 123.71 182.89 147.71 182.89 171.71 182.89 195.71 182.89 219.71 182.89 243.2 182.89 243.2 159.99 243.2 146.6 243.2 133.72 243.2 124.12"/><path class="cls-5" d="M159.09,112.11,119.54,89.28a3.79,3.79,0,0,0-5.69,3.29v45.67a3.79,3.79,0,0,0,5.69,3.29l39.55-22.83A3.79,3.79,0,0,0,159.09,112.11Z"/><line class="cls-4" x1="28.22" y1="70.8" x2="243.2" y2="70.8"/><line class="cls-4" x1="28.22" y1="159.99" x2="243.2" y2="159.99"/><line class="cls-4" x1="51.71" y1="159.99" x2="51.71" y2="182.89"/><line class="cls-4" x1="75.71" y1="159.99" x2="75.71" y2="182.89"/><line class="cls-4" x1="99.71" y1="159.99" x2="99.71" y2="182.89"/><line class="cls-4" x1="123.71" y1="159.99" x2="123.71" y2="182.89"/><line class="cls-4" x1="147.71" y1="159.99" x2="147.71" y2="182.89"/><line class="cls-4" x1="171.71" y1="159.99" x2="171.71" y2="182.89"/><line class="cls-4" x1="195.71" y1="159.99" x2="195.71" y2="182.89"/><line class="cls-4" x1="219.71" y1="159.99" x2="219.71" y2="182.89"/><line class="cls-4" x1="51.71" y1="47.91" x2="51.71" y2="70.8"/><line class="cls-4" x1="75.71" y1="47.91" x2="75.71" y2="70.8"/><line class="cls-4" x1="99.71" y1="47.91" x2="99.71" y2="70.8"/><line class="cls-4" x1="123.71" y1="47.91" x2="123.71" y2="70.8"/><line class="cls-4" x1="147.71" y1="47.91" x2="147.71" y2="70.8"/><line class="cls-4" x1="171.71" y1="47.91" x2="171.71" y2="70.8"/><line class="cls-4" x1="195.71" y1="47.91" x2="195.71" y2="70.8"/><line class="cls-4" x1="219.71" y1="47.91" x2="219.71" y2="70.8"/><circle class="cls-6" cx="243.07" cy="109.7" r="3.43"/><line class="cls-4" x1="43.58" y1="70.8" x2="43.58" y2="118.92"/><line class="cls-4" x1="43.58" y1="124.92" x2="43.58" y2="131.58"/><line class="cls-4" x1="126.91" y1="94.86" x2="126.91" y2="116.58"/><line class="cls-4" x1="126.91" y1="120.92" x2="126.91" y2="125.25"/></g></g></g></svg>